<svg id="Layer_1" data-name="Layer 1" viewBox="0 0 400 400" xmlns="http://www.w3.org/2000/svg" xmlns:xlink="http://www.w3.org/1999/xlink">
  <defs>
    <style>.cls-1{fill:#fff;}.cls-2{fill:url(#linear-gradient);}.cls-3{fill:url(#linear-gradient-2);}.cls-4{fill:url(#linear-gradient-3);}.cls-5{fill:url(#linear-gradient-4);}</style>
    <linearGradient id="linear-gradient" x1="146.73" y1="213.52" x2="92.41" y2="359.64" gradientUnits="userSpaceOnUse" gradientTransform="matrix(1, 0, 0, 1, 0, 1.024443)">
      <stop offset="0.2" stop-color="#00a0dd"></stop>
      <stop offset="1" stop-color="#006796"></stop>
    </linearGradient>
    <linearGradient id="linear-gradient-2" x1="137.97" y1="210.26" x2="83.64" y2="356.38" gradientTransform="matrix(1, 0, 0, 1, 0, 1.024443)" xlink:href="#linear-gradient"></linearGradient>
    <linearGradient id="linear-gradient-3" x1="138.84" y1="210.58" x2="84.51" y2="356.7" gradientTransform="matrix(1, 0, 0, 1, 0, 1.024443)" xlink:href="#linear-gradient"></linearGradient>
    <linearGradient id="linear-gradient-4" x1="144.15" y1="212.56" x2="89.82" y2="358.68" gradientTransform="matrix(1, 0, 0, 1, 0, 1.024443)" xlink:href="#linear-gradient"></linearGradient>
  </defs>
  <g transform="matrix(2.928421, 0, 0, 2.928421, -149.974548, -639.508362)" style="">
    <path class="cls-2" d="M 119.55 219.403 C 66.996 219.43 34.179 276.339 60.479 321.838 C 69.512 337.465 84.365 348.878 101.79 353.583 L 101.79 341.383 C 60.168 327.712 48.954 274.111 81.604 244.901 C 114.254 215.691 166.281 232.779 175.252 275.66 C 180.12 298.922 170.019 322.76 149.92 335.443 C 145.726 338.105 141.196 340.196 136.45 341.663 L 136.45 353.803 C 187.357 340.748 205.041 277.48 168.282 239.921 C 155.451 226.811 137.884 219.416 119.54 219.403 L 119.55 219.403 Z"></path>
    <path class="cls-3" d="M 100.92 242.023 C 100.92 242.023 96.22 253.023 95.07 261.023 L 108.45 261.023 L 109.16 256.773 L 130.61 256.773 L 131.5 261.023 L 145.15 261.023 L 138.23 242.023 L 127.07 242.023 L 127 245.023 L 111.93 244.933 L 111.93 242.023 L 100.92 242.023 Z"></path>
    <polygon class="cls-4" points="75.31 264.123 83.46 255.703 90.46 262.703 147.54 263.053 154.98 255.703 163.31 264.123 152.86 274.663 86.03 274.663 75.31 264.123"></polygon>
    <path class="cls-5" d="M 140.89 290.023 L 140.89 302.963 L 149.89 302.963 L 149.95 335.463 L 149.95 348.813 C 145.649 350.951 141.134 352.627 136.48 353.813 L 136.48 341.673 L 136.42 314.673 L 101.72 314.673 L 101.72 341.423 L 101.72 353.623 C 97.631 352.522 93.654 351.042 89.84 349.203 L 89.77 335.893 L 89.6 302.623 L 98.9 302.713 L 98.72 289.713 L 80.11 289.623 L 65.31 274.733 L 74.53 265.733 L 85.16 276.373 L 112.28 276.373 L 112.28 302.023 L 128.15 302.023 L 128.15 276.523 L 154.65 276.353 L 165.28 265.623 L 173.88 274.623 L 159.5 290.173 L 140.89 290.023 Z"></path>
  </g>
</svg>