<svg width="1200" height="334"  viewBox="0 0 1200 334" preserveAspectRatio="no"  id="Layer_1" data-name="Layer 1" xmlns="http://www.w3.org/2000/svg" xmlns:xlink="http://www.w3.org/1999/xlink" viewBox="0 0 595.28 572.98"><defs><style>.cls-1{fill:#fff;}.cls-2{fill:url(#linear-gradient);}.cls-3{fill:url(#linear-gradient-2);}.cls-4{fill:url(#linear-gradient-3);}.cls-5{fill:url(#linear-gradient-4);}</style><linearGradient id="linear-gradient" x1="146.73" y1="213.52" x2="92.41" y2="359.64" gradientUnits="userSpaceOnUse"><stop offset="0.2" stop-color="#00a0dd"/><stop offset="1" stop-color="#006796"/></linearGradient><linearGradient id="linear-gradient-2" x1="137.97" y1="210.26" x2="83.64" y2="356.38" xlink:href="#linear-gradient"/><linearGradient id="linear-gradient-3" x1="138.84" y1="210.58" x2="84.51" y2="356.7" xlink:href="#linear-gradient"/><linearGradient id="linear-gradient-4" x1="144.15" y1="212.56" x2="89.82" y2="358.68" xlink:href="#linear-gradient"/></defs><path class="cls-1" d="M205.52,239.29a2.13,2.13,0,0,1,2.16-2.15h10.57a2.13,2.13,0,0,1,2.16,2.15v30.12h37V239.29a2.08,2.08,0,0,1,.63-1.53,2.11,2.11,0,0,1,1.53-.62h10.46a2.13,2.13,0,0,1,2.16,2.15v75.24a2.08,2.08,0,0,1-.63,1.53,2.06,2.06,0,0,1-1.53.62H259.61a2.13,2.13,0,0,1-2.16-2.15V283.16h-37v31.37a2.08,2.08,0,0,1-.63,1.53,2.06,2.06,0,0,1-1.53.62H207.68a2,2,0,0,1-1.53-.62,2.08,2.08,0,0,1-.63-1.53Z"/><path class="cls-1" d="M302.91,238.05a1.9,1.9,0,0,1,.63-1.48,2.16,2.16,0,0,1,1.53-.57h1.7a2.68,2.68,0,0,1,1.94.79l46.36,49.44h.23V239.29a2.12,2.12,0,0,1,2.16-2.15h10.45a2.12,2.12,0,0,1,2.16,2.15v76.49a1.92,1.92,0,0,1-.62,1.47,2.21,2.21,0,0,1-1.54.57h-1.59a2.62,2.62,0,0,1-1.93-.79L317.8,265.66h-.23v48.87a2.11,2.11,0,0,1-.62,1.53,2.08,2.08,0,0,1-1.54.62H305.07a2,2,0,0,1-1.53-.62,2.08,2.08,0,0,1-.63-1.53Z"/><path class="cls-1" d="M396.1,277A41,41,0,0,1,408,248a41.38,41.38,0,0,1,13-8.75,41,41,0,0,1,31.93,0,42.19,42.19,0,0,1,13,8.75,40.13,40.13,0,0,1,8.75,13,40.61,40.61,0,0,1,3.18,16A40.44,40.44,0,0,1,465.87,306a41.51,41.51,0,0,1-13,8.69,41.67,41.67,0,0,1-31.93,0A40.32,40.32,0,0,1,399.28,293,40.19,40.19,0,0,1,396.1,277Zm14.77,0a25.45,25.45,0,0,0,2,10.12A25.91,25.91,0,0,0,426.78,301,26,26,0,0,0,447,301a26.85,26.85,0,0,0,8.35-5.57A26,26,0,0,0,461,266.91a26.39,26.39,0,0,0-5.63-8.35,27.36,27.36,0,0,0-8.35-5.69,25.41,25.41,0,0,0-20.23,0,26.5,26.5,0,0,0-13.87,14A25.44,25.44,0,0,0,410.87,277Z"/><path class="cls-1" d="M493.26,309.53a2.24,2.24,0,0,1,.23-2.85l5.91-6a2.18,2.18,0,0,1,3.41.12,16.22,16.22,0,0,0,2.89,2.44,8.13,8.13,0,0,0,4.61,1.19,11.3,11.3,0,0,0,3.35-.51,7.75,7.75,0,0,0,3-1.7,8,8,0,0,0,2-3.19,14.32,14.32,0,0,0,.74-4.94V239.29a2.07,2.07,0,0,1,.62-1.53,2.12,2.12,0,0,1,1.54-.62h10.68a2.13,2.13,0,0,1,2.16,2.15v54.78a26.36,26.36,0,0,1-1.88,10.34,21.22,21.22,0,0,1-5.11,7.44,20.8,20.8,0,0,1-7.56,4.49,28.45,28.45,0,0,1-9.32,1.48,21.17,21.17,0,0,1-6.65-1,24.21,24.21,0,0,1-5-2.28,19.52,19.52,0,0,1-3.52-2.73A22.48,22.48,0,0,1,493.26,309.53Z"/><path class="cls-2" d="M119.55,218.38a68.27,68.27,0,0,0-17.76,134.18l0-12.2a56.91,56.91,0,1,1,48.13-5.94,56,56,0,0,1-13.47,6.22l0,12.14a68.27,68.27,0,0,0-16.91-134.4Z"/><path class="cls-3" d="M100.92,241s-4.7,11-5.85,19h13.38l.71-4.25h21.45l.89,4.25h13.65l-6.92-19H127.07L127,244l-15.07-.09V241Z"/><polygon class="cls-4" points="75.31 263.1 83.46 254.68 90.46 261.68 147.54 262.03 154.98 254.68 163.31 263.1 152.86 273.64 86.03 273.64 75.31 263.1"/><path class="cls-5" d="M140.89,289v12.94h9l.06,32.5,0,13.35a68,68,0,0,1-13.47,5l0-12.14-.06-27H101.72l0,26.75,0,12.2a68.16,68.16,0,0,1-11.88-4.42l-.07-13.31-.17-33.27,9.3.09-.18-13-18.61-.09-14.8-14.89,9.22-9,10.63,10.64h27.12V301h15.87V275.5l26.5-.17,10.63-10.73,8.6,9L159.5,289.15Z"/><path class="cls-1" d="M217.6,335.52v14.54h-2v-6.62h-7.84v6.62h-2V335.52h2V342h7.84v-6.48Z"/><path class="cls-1" d="M241.26,350.06h-1.52a.62.62,0,0,1-.42-.13.9.9,0,0,1-.25-.33l-1.36-3.52h-6.53l-1.36,3.52a.64.64,0,0,1-.23.32.62.62,0,0,1-.43.14h-1.52l5.82-14.54h2Zm-4.1-5.4-2.28-5.92c-.07-.17-.14-.38-.21-.61s-.15-.48-.22-.75a10.27,10.27,0,0,1-.43,1.37l-2.29,5.91Z"/><path class="cls-1" d="M263.09,335.52v14.54h-1a.82.82,0,0,1-.4-.08,1,1,0,0,1-.31-.27l-8.41-11,0,.5c0,.16,0,.32,0,.46v10.36H251.3V335.52h1.24l.17.05.14.1.15.17,8.41,10.95,0-.51c0-.16,0-.32,0-.47v-10.3Z"/><path class="cls-1" d="M288.37,342.79a8.51,8.51,0,0,1-.52,3,6.87,6.87,0,0,1-1.46,2.35,6.5,6.5,0,0,1-2.27,1.53,7.72,7.72,0,0,1-2.93.54,7.63,7.63,0,0,1-2.92-.54,6.5,6.5,0,0,1-2.27-1.53,6.87,6.87,0,0,1-1.46-2.35,8.91,8.91,0,0,1,0-6,7,7,0,0,1,1.46-2.35,6.66,6.66,0,0,1,2.27-1.54,7.63,7.63,0,0,1,2.92-.55,7.72,7.72,0,0,1,2.93.55,6.66,6.66,0,0,1,2.27,1.54,7,7,0,0,1,1.46,2.35A8.55,8.55,0,0,1,288.37,342.79Zm-2,0a7.46,7.46,0,0,0-.37-2.4,5,5,0,0,0-1-1.8,4.35,4.35,0,0,0-1.62-1.13,5.43,5.43,0,0,0-2.13-.4,5.34,5.34,0,0,0-2.12.4,4.47,4.47,0,0,0-1.63,1.13,5,5,0,0,0-1,1.8,8,8,0,0,0,0,4.81,5,5,0,0,0,1,1.79,4.47,4.47,0,0,0,1.63,1.13,5.52,5.52,0,0,0,2.12.39,5.61,5.61,0,0,0,2.13-.39,4.35,4.35,0,0,0,1.62-1.13,5,5,0,0,0,1-1.79A7.48,7.48,0,0,0,286.35,342.79Z"/><path class="cls-1" d="M301.27,350.06h-2V335.52h2Z"/><path class="cls-1" d="M326.55,342.79a8.51,8.51,0,0,1-.52,3,6.87,6.87,0,0,1-1.46,2.35,6.5,6.5,0,0,1-2.27,1.53,8.22,8.22,0,0,1-5.86,0,6.55,6.55,0,0,1-2.26-1.53,6.72,6.72,0,0,1-1.46-2.35,8.91,8.91,0,0,1,0-6,6.81,6.81,0,0,1,1.46-2.35,6.72,6.72,0,0,1,2.26-1.54,8.08,8.08,0,0,1,5.86,0,6.66,6.66,0,0,1,2.27,1.54,7,7,0,0,1,1.46,2.35A8.55,8.55,0,0,1,326.55,342.79Zm-2,0a7.47,7.47,0,0,0-.36-2.4,5,5,0,0,0-1-1.8,4.35,4.35,0,0,0-1.62-1.13,5.43,5.43,0,0,0-2.13-.4,5.34,5.34,0,0,0-2.12.4,4.47,4.47,0,0,0-1.63,1.13,5,5,0,0,0-1,1.8,8,8,0,0,0,0,4.81,5,5,0,0,0,1,1.79,4.47,4.47,0,0,0,1.63,1.13,5.52,5.52,0,0,0,2.12.39,5.61,5.61,0,0,0,2.13-.39,4.35,4.35,0,0,0,1.62-1.13,5,5,0,0,0,1-1.79A7.49,7.49,0,0,0,324.52,342.79Z"/><path class="cls-1" d="M349.26,335.52v14.54h-1a.75.75,0,0,1-.39-.08.85.85,0,0,1-.31-.27l-8.42-11a4.32,4.32,0,0,1,0,.5c0,.16,0,.32,0,.46v10.36h-1.72V335.52h1.24l.16.05.14.1a1.29,1.29,0,0,1,.15.17l8.42,10.95c0-.17,0-.34,0-.51s0-.32,0-.47v-10.3Z"/><path class="cls-1" d="M369.35,348.41v1.65H361.1V335.52h2v12.89Z"/><path class="cls-1" d="M381.61,350.06h-2V335.52h2Z"/><path class="cls-1" d="M405.24,335.52v14.54h-1a.8.8,0,0,1-.39-.08.94.94,0,0,1-.31-.27l-8.41-11,0,.5c0,.16,0,.32,0,.46v10.36h-1.73V335.52h1.24l.16.05a.71.71,0,0,1,.14.1l.16.17,8.41,10.95,0-.51c0-.16,0-.32,0-.47v-10.3Z"/><path class="cls-1" d="M426.05,348.46v1.6h-9V335.52h9v1.6h-7V342h5.67v1.54H419v5Z"/><path class="cls-1" d="M441.93,345a7.32,7.32,0,0,1-.3,2.18,4.41,4.41,0,0,1-.88,1.63,3.93,3.93,0,0,1-1.44,1,5,5,0,0,1-2,.35,7.78,7.78,0,0,1-2.05-.28c0-.2,0-.39.05-.58l.06-.58a.47.47,0,0,1,.12-.28.45.45,0,0,1,.33-.1,1.71,1.71,0,0,1,.48.09,2.92,2.92,0,0,0,.81.09,3.43,3.43,0,0,0,1.2-.2,2.16,2.16,0,0,0,.88-.63,3,3,0,0,0,.55-1.09,6.13,6.13,0,0,0,.18-1.58v-9.56h2Z"/><path class="cls-1" d="M459.23,348.5a3.92,3.92,0,0,0,1.61-.31,3.28,3.28,0,0,0,1.21-.85,3.91,3.91,0,0,0,.75-1.31,5.22,5.22,0,0,0,.26-1.67v-8.84h2v8.84a6.52,6.52,0,0,1-.41,2.33,5.19,5.19,0,0,1-1.14,1.86,5.3,5.3,0,0,1-1.82,1.24,6.73,6.73,0,0,1-4.84,0,5.3,5.3,0,0,1-1.82-1.24,5.38,5.38,0,0,1-1.16-1.86,6.74,6.74,0,0,1-.4-2.33v-8.84h2v8.83a5.22,5.22,0,0,0,.26,1.67,3.6,3.6,0,0,0,.75,1.31,3.42,3.42,0,0,0,1.21.86A4,4,0,0,0,459.23,348.5Z"/><path class="cls-1" d="M489.28,342.79a8.32,8.32,0,0,1-.52,3,6.61,6.61,0,0,1-1.46,2.29,6.52,6.52,0,0,1-2.27,1.48,7.88,7.88,0,0,1-2.93.52h-5.43V335.52h5.43A7.88,7.88,0,0,1,485,336a6.52,6.52,0,0,1,2.27,1.48,6.75,6.75,0,0,1,1.46,2.3A8.26,8.26,0,0,1,489.28,342.79Zm-2,0a7.1,7.1,0,0,0-.37-2.39,5.07,5.07,0,0,0-1-1.79,4.3,4.3,0,0,0-1.63-1.11,5.57,5.57,0,0,0-2.13-.39h-3.46v11.36h3.46a5.57,5.57,0,0,0,2.13-.39,4.3,4.3,0,0,0,1.63-1.11,5,5,0,0,0,1-1.78A7.12,7.12,0,0,0,487.26,342.79Z"/><path class="cls-1" d="M512.05,343.07v5.58a8.05,8.05,0,0,1-2.34,1.18,9.1,9.1,0,0,1-2.73.39,8.82,8.82,0,0,1-3.17-.54,7,7,0,0,1-2.41-1.52,6.76,6.76,0,0,1-1.54-2.35,9,9,0,0,1,0-6.05,6.54,6.54,0,0,1,3.83-3.87,8.42,8.42,0,0,1,3.09-.54,10,10,0,0,1,1.6.13,7.6,7.6,0,0,1,1.37.37,6.34,6.34,0,0,1,1.17.57,7.59,7.59,0,0,1,1,.77l-.55.89a.57.57,0,0,1-.34.26.6.6,0,0,1-.47-.09l-.55-.35a6.08,6.08,0,0,0-.77-.39,6.41,6.41,0,0,0-2.52-.45,5.9,5.9,0,0,0-2.23.4,4.74,4.74,0,0,0-1.69,1.15,5,5,0,0,0-1.08,1.8,7.12,7.12,0,0,0-.37,2.38,7.26,7.26,0,0,0,.39,2.46,5.11,5.11,0,0,0,1.11,1.83,4.76,4.76,0,0,0,1.76,1.15,6.4,6.4,0,0,0,2.33.4,6.5,6.5,0,0,0,1.8-.23,7.56,7.56,0,0,0,1.54-.63v-3.2H508a.43.43,0,0,1-.31-.11.37.37,0,0,1-.12-.27v-1.12Z"/><path class="cls-1" d="M532.16,348.46v1.6h-9V335.52h9v1.6h-7V342h5.67v1.54h-5.67v5Z"/></svg>